<svg xmlns="http://www.w3.org/2000/svg"  viewBox="0 0 72 72" width="64px" height="64px"><path d="M 36 10 C 34.861 10 33.722922 10.386609 32.794922 11.162109 L 11.517578 28.941406 C 10.052578 30.165406 9.5519375 32.270219 10.460938 33.949219 C 11.711938 36.258219 14.661453 36.740437 16.564453 35.148438 L 35.359375 19.445312 C 35.730375 19.135313 36.269625 19.135313 36.640625 19.445312 L 55.435547 35.148438 C 56.184547 35.774437 57.093047 36.078125 57.998047 36.078125 C 59.171047 36.078125 60.333953 35.567219 61.126953 34.574219 C 62.503953 32.850219 62.112922 30.303672 60.419922 28.888672 L 58 26.867188 L 58 16.667969 C 58 15.194969 56.805984 14 55.333984 14 L 52.667969 14 C 51.194969 14 50 15.194969 50 16.667969 L 50 20.181641 L 39.205078 11.162109 C 38.277078 10.386609 37.139 10 36 10 z M 36 22.919922 L 14 41.300781 L 14 50 C 14 54.418 17.582 58 22 58 L 28 58 C 30.209 58 32 56.209 32 54 L 32 45 C 32 43.895 32.895 43 34 43 L 38 43 C 39.105 43 40 43.895 40 45 L 40 54 C 40 56.209 41.791 58 44 58 L 50 58 C 54.418 58 58 54.418 58 50 L 58 41.300781 L 36 22.919922 z"/></svg>