<svg xmlns="http://www.w3.org/2000/svg"  viewBox="0 0 72 72" width="64px" height="64px"><path d="M16.49 26.868c-.863 0-1.688-.372-2.261-1.027l-2.939-3.368c-1.089-1.248-.96-3.144.288-4.233 1.247-1.088 3.144-.96 4.233.288l.322.369 2.196-3.395c.9-1.39 2.758-1.789 4.148-.889 1.391.899 1.789 2.757.889 4.148l-4.358 6.736c-.512.79-1.364 1.295-2.304 1.362C16.633 26.865 16.562 26.868 16.49 26.868zM56 26H31c-2.209 0-4-1.791-4-4s1.791-4 4-4h25c2.209 0 4 1.791 4 4S58.209 26 56 26zM16.49 40.868c-.863 0-1.688-.372-2.261-1.027l-2.939-3.368c-1.089-1.248-.96-3.144.288-4.233 1.247-1.088 3.144-.961 4.233.288l.322.369 2.196-3.395c.9-1.39 2.758-1.788 4.148-.889s1.789 2.757.889 4.148l-4.358 6.736c-.512.79-1.364 1.295-2.304 1.362C16.633 40.865 16.562 40.868 16.49 40.868zM56 40H31c-2.209 0-4-1.791-4-4s1.791-4 4-4h25c2.209 0 4 1.791 4 4S58.209 40 56 40zM19 55h-4c-1.657 0-3-1.343-3-3v-4c0-1.657 1.343-3 3-3h4c1.657 0 3 1.343 3 3v4C22 53.657 20.657 55 19 55zM56 54H31c-2.209 0-4-1.791-4-4s1.791-4 4-4h25c2.209 0 4 1.791 4 4S58.209 54 56 54z"/></svg>