<svg xmlns="http://www.w3.org/2000/svg"  viewBox="0 0 72 72" width="64px" height="64px"><path d="M28.802 58h14.396c-1.504 2.398-4.165 4-7.198 4S30.307 60.398 28.802 58zM56.66 42.89C56.9 43.25 59 46.56 59 52c0 1.1-.9 2-2 2H15c-1.1 0-2-.9-2-2 0-5.44 2.1-8.75 2.34-9.11.22-.33.48-.56.8-.7 3.07-1.32 4.76-5.32 5.18-12.23.03-.47.41-9.12 10.1-11.77C32.48 16.42 33.58 15 36 15s3.52 1.42 4.58 3.19c9.69 2.65 10.07 11.3 10.1 11.77.42 6.91 2.11 10.91 5.18 12.23C56.18 42.33 56.44 42.56 56.66 42.89zM57.85 30.739c-1.38 0-2.623-.959-2.929-2.362-1.088-4.997-4.215-9.37-8.364-11.699-1.444-.812-1.958-2.64-1.147-4.085.811-1.443 2.637-1.96 4.085-1.147 5.621 3.155 9.842 9.008 11.29 15.654.353 1.619-.674 3.218-2.293 3.57C58.276 30.717 58.062 30.739 57.85 30.739zM14.15 30.739c-.212 0-.426-.022-.642-.069-1.619-.353-2.646-1.951-2.293-3.57 1.448-6.646 5.669-12.499 11.29-15.654 1.445-.812 3.272-.297 4.085 1.147.811 1.445.297 3.273-1.147 4.085-4.149 2.329-7.276 6.702-8.364 11.699C16.773 29.78 15.53 30.739 14.15 30.739z"/></svg>