<svg xmlns="http://www.w3.org/2000/svg"  viewBox="0 0 72 72" width="64px" height="64px"><path d="M50 28c4.971 0 9 4.029 9 9v12c0 4.971-4.029 9-9 9H22c-4.971 0-9-4.029-9-9V37c0-4.971 4.029-9 9-9H50zM29 50v-2c0-.552-.448-1-1-1h-2c-.552 0-1 .448-1 1v2c0 .552.448 1 1 1h2C28.552 51 29 50.552 29 50zM29 44v-2c0-.552-.448-1-1-1h-2c-.552 0-1 .448-1 1v2c0 .552.448 1 1 1h2C28.552 45 29 44.552 29 44zM35 50v-2c0-.552-.448-1-1-1h-2c-.552 0-1 .448-1 1v2c0 .552.448 1 1 1h2C34.552 51 35 50.552 35 50zM35 44v-2c0-.552-.448-1-1-1h-2c-.552 0-1 .448-1 1v2c0 .552.448 1 1 1h2C34.552 45 35 44.552 35 44zM35 38v-2c0-.552-.448-1-1-1h-2c-.552 0-1 .448-1 1v2c0 .552.448 1 1 1h2C34.552 39 35 38.552 35 38zM41 50v-2c0-.552-.448-1-1-1h-2c-.552 0-1 .448-1 1v2c0 .552.448 1 1 1h2C40.552 51 41 50.552 41 50zM41 44v-2c0-.552-.448-1-1-1h-2c-.552 0-1 .448-1 1v2c0 .552.448 1 1 1h2C40.552 45 41 44.552 41 44zM41 38v-2c0-.552-.448-1-1-1h-2c-.552 0-1 .448-1 1v2c0 .552.448 1 1 1h2C40.552 39 41 38.552 41 38zM47 44v-2c0-.552-.448-1-1-1h-2c-.552 0-1 .448-1 1v2c0 .552.448 1 1 1h2C46.552 45 47 44.552 47 44zM47 38v-2c0-.552-.448-1-1-1h-2c-.552 0-1 .448-1 1v2c0 .552.448 1 1 1h2C46.552 39 47 38.552 47 38zM21 24c-3.078 0-5.876 1.169-8 3.074V23c0-4.971 4.029-9 9-9h28c4.971 0 9 4.029 9 9v4.074C56.876 25.169 54.078 24 51 24H21z"/></svg>